<?xml version="1.0" encoding="UTF-8"?>
<!-- Generator: Adobe Illustrator 26.0.3, SVG Export Plug-In . SVG Version: 6.00 Build 0)  -->
<svg xmlns="http://www.w3.org/2000/svg" xmlns:xlink="http://www.w3.org/1999/xlink" version="1.1" id="Capa_1" x="0px" y="0px" viewBox="0 0 512 512" style="enable-background:new 0 0 512 512;" xml:space="preserve" width="512" height="512">
<g>
	<g>
		<g>
			<path d="M399.34,167H71.996C32.297,167,0,135.149,0,96s32.297-71,71.996-71H399.34c6.075,0,11,4.925,11,11v60     c0,6.075-4.925,11-11,11s-11-4.925-11-11V47H71.996C44.428,47,22,68.981,22,96s22.428,49,49.996,49H399.34     c6.075,0,11,4.925,11,11S405.415,167,399.34,167z"/>
		</g>
		<g>
			<path style="fill:#33CCCC;" d="M440.004,167H71.996c-6.075,0-11-4.925-11-11V96c0-6.075,4.925-11,11-11h368.008     c6.075,0,11,4.925,11,11v60C451.004,162.075,446.079,167,440.004,167z M82.996,145h346.008v-38H82.996V145z"/>
		</g>
	</g>
	<path d="M501,255h-9.332v-99c0-6.075-4.925-11-11-11H71.996C44.428,145,22,123.019,22,96c0-6.075-4.925-11-11-11S0,89.925,0,96v320   c0,39.149,32.297,71,71.996,71h408.672c6.075,0,11-4.925,11-11v-99H501c6.075,0,11-4.925,11-11V266   C512,259.925,507.075,255,501,255z M490,355h-81.324c-21.505,0-39-17.495-39-39s17.495-39,39-39H490V355z M469.668,255h-38.996v-88   h38.996V255z M22,416V147.043C34.96,159.391,52.595,167,71.996,167h336.676v88c-33.634,0.002-60.996,27.365-60.996,61   s27.362,60.998,60.996,61v88H71.996C44.428,465,22,443.019,22,416z M469.668,465h-38.996v-88h38.996V465z"/>
</g>
</svg>
